<svg xmlns="http://www.w3.org/2000/svg" width="28.333" height="28.333" viewBox="0 0 28.333 28.333"><path d="M9.7,24.867A2.733,2.733,0,1,0,12.433,27.6,2.73,2.73,0,0,0,9.7,24.867ZM1.5,3V5.733H4.233l4.92,10.373L7.308,19.455a2.642,2.642,0,0,0-.342,1.312A2.741,2.741,0,0,0,9.7,23.5H26.1V20.767H10.274a.338.338,0,0,1-.342-.342l.041-.164,1.23-2.228H21.385a2.72,2.72,0,0,0,2.392-1.408l4.893-8.87a1.335,1.335,0,0,0,.164-.656,1.371,1.371,0,0,0-1.367-1.367H7.254L5.969,3ZM23.367,24.867A2.733,2.733,0,1,0,26.1,27.6,2.73,2.73,0,0,0,23.367,24.867Z" transform="translate(-1 -2.5)" fill="#fff" stroke="#fff" stroke-width="1"/></svg>