<svg xmlns="http://www.w3.org/2000/svg" width="50" height="38.881" viewBox="0 0 50 38.881"><path d="M24.336,12.34l-16,13.18V39.746a1.389,1.389,0,0,0,1.389,1.389l9.727-.025a1.389,1.389,0,0,0,1.382-1.389V31.414a1.389,1.389,0,0,1,1.389-1.389h5.555a1.389,1.389,0,0,1,1.389,1.389v8.3a1.389,1.389,0,0,0,1.389,1.393l9.723.027a1.389,1.389,0,0,0,1.389-1.389V25.511l-16-13.171A1.058,1.058,0,0,0,24.336,12.34ZM49.614,21.3l-7.256-5.981V3.3a1.042,1.042,0,0,0-1.042-1.042H36.456A1.042,1.042,0,0,0,35.414,3.3V9.6L27.643,3.2a4.166,4.166,0,0,0-5.295,0L.377,21.3a1.042,1.042,0,0,0-.139,1.467l2.213,2.691a1.042,1.042,0,0,0,1.468.141L24.336,8.782a1.058,1.058,0,0,1,1.328,0L46.082,25.6a1.042,1.042,0,0,0,1.467-.139l2.213-2.691a1.042,1.042,0,0,0-.148-1.47Z" transform="translate(0.001 -2.254)" fill="#70865e"/></svg>