<svg xmlns="http://www.w3.org/2000/svg" width="50" height="44.444" viewBox="0 0 50 44.444"><path d="M18.344,19.211l2.2-14.583H9.113l-4.775,12.5a4.382,4.382,0,0,0-.225,1.389c0,3.067,3.194,5.556,7.142,5.556,3.639,0,6.647-2.122,7.089-4.861Zm10.769,4.861c3.944,0,7.142-2.489,7.142-5.556,0-.114-.008-.228-.014-.336L34.827,4.627H23.4L21.982,18.169c-.006.114-.011.228-.011.347,0,3.067,3.2,5.556,7.142,5.556ZM43,26.977V37.961H15.224V26.994a11.688,11.688,0,0,1-3.969.689,11.453,11.453,0,0,1-1.586-.136V45.183a3.9,3.9,0,0,0,3.883,3.889H44.669a3.9,3.9,0,0,0,3.889-3.889V27.549a11.935,11.935,0,0,1-1.586.136A11.543,11.543,0,0,1,43,26.977Zm10.889-9.85L49.11,4.627H37.685L39.88,19.188c.428,2.75,3.436,4.883,7.092,4.883,3.944,0,7.142-2.489,7.142-5.556a4.461,4.461,0,0,0-.222-1.389Z" transform="translate(-4.113 -4.627)" fill="#70865e"/></svg>